<svg viewBox="0 0 512 512" xml:space="preserve" xmlns="http://www.w3.org/2000/svg"><circle cx="256" cy="256" fill="#ffffff" r="256" class="fill-666666"></circle><path d="M274.7 83.3c12.9-15.2 34.7-26.5 52.9-27.3 2.4 21.1-6.2 42.3-18.6 57.5-12.5 15.3-32.9 27-53.2 25.4-2.9-20.5 7.3-42 18.9-55.6zm102.5 288c-15 21.9-30.4 43.7-54.9 44.2-24.1.4-31.7-14.3-59.2-14.3s-36.1 13.7-58.8 14.7c-23.6.9-41.6-23.7-56.6-45.5C117 325.7 93.5 244.1 125.1 189c15.6-27.3 43.6-44.6 74.2-45.1 23.2-.3 45 15.6 59.2 15.6 14.2 0 40.7-19.3 68.6-16.5 11.7.4 44.5 4.7 65.5 35.6-1.6 1.1-39.2 22.9-38.7 68.6.4 54.4 47.5 72.5 48.1 72.8-.4 1.4-7.4 26-24.8 51.3z" fill="#1761cc" class="fill-ffffff"></path></svg>